# xmcd
#
# Track frame offsets: 
#        150
#        16287
#        34275
#        47040
#        70995
#        84145
#        99002
#        116302
#        134460
#        153602
#
# Disc length: 2246 seconds
#
# Revision: 8
# Processed by: cddbd v1.5.2PL0 Copyright (c) Steve Scherf et al.
# Submitted via: ExactAudioCopyFreeDBPlugin 1.0
#
DISCID=7508c40a
DTITLE=The Charlie Daniels Band - A Decade Of Hits
DYEAR=1983
DGENRE=Country
TTITLE0=The Devil Went Down To Georgia
TTITLE1=The South's Gonna Do It Again
TTITLE2=Stroker's Theme
TTITLE3=Uneasy Rider
TTITLE4=Let It Roll
TTITLE5=In America
TTITLE6=Still In Saigon
TTITLE7=Long Haired Country Boy
TTITLE8=The Legend Of Wooley Swamp
TTITLE9=Everytime I See Him
EXTD=Release year: 1983\nRelease country: AU\nRelease label: Epic\nRel
EXTD=ease catalog#: 462776 2 \nBarcode: 939974277625
EXTT0=
EXTT1=
EXTT2=
EXTT3=
EXTT4=
EXTT5=
EXTT6=
EXTT7=
EXTT8=
EXTT9=
PLAYORDER=
